<svg id="visual" viewBox="0 0 900 600" width="900" height="600" xmlns="http://www.w3.org/2000/svg" xmlns:xlink="http://www.w3.org/1999/xlink" version="1.1"><rect x="0" y="0" width="900" height="600" fill="#ffffff"></rect><defs><linearGradient id="grad1_0" x1="33.3%" y1="0%" x2="100%" y2="100%"><stop offset="20%" stop-color="#ffffff" stop-opacity="1"></stop><stop offset="80%" stop-color="#ffffff" stop-opacity="1"></stop></linearGradient></defs><defs><linearGradient id="grad2_0" x1="0%" y1="0%" x2="66.7%" y2="100%"><stop offset="20%" stop-color="#ffffff" stop-opacity="1"></stop><stop offset="80%" stop-color="#ffffff" stop-opacity="1"></stop></linearGradient></defs><g transform="translate(900, 0)"><path d="M0 432.7C-49.1 414.1 -98.1 395.6 -157.3 379.7C-216.4 363.9 -285.7 350.7 -305.9 305.9C-326.2 261.2 -297.5 184.8 -310.4 128.6C-323.4 72.3 -378 36.2 -432.7 0L0 0Z" fill="#0f23a5"></path></g><g transform="translate(0, 600)"><path d="M0 -432.7C55 -422.7 110 -412.8 163 -393.6C216 -374.3 267 -345.8 305.9 -305.9C344.9 -266 371.7 -214.8 390.8 -161.9C409.9 -109 421.3 -54.5 432.7 0L0 0Z" fill="#0f23a5"></path></g></svg>