<svg id="visual" viewBox="0 0 900 600" width="900" height="600" xmlns="http://www.w3.org/2000/svg" xmlns:xlink="http://www.w3.org/1999/xlink" version="1.1"><rect x="0" y="0" width="900" height="600" fill="#4459f1"></rect><defs><linearGradient id="grad1_0" x1="33.3%" y1="0%" x2="100%" y2="100%"><stop offset="20%" stop-color="#0f23a5" stop-opacity="1"></stop><stop offset="80%" stop-color="#0f23a5" stop-opacity="1"></stop></linearGradient></defs><defs><linearGradient id="grad1_1" x1="33.3%" y1="0%" x2="100%" y2="100%"><stop offset="20%" stop-color="#0f23a5" stop-opacity="1"></stop><stop offset="80%" stop-color="#2d3eca" stop-opacity="1"></stop></linearGradient></defs><defs><linearGradient id="grad1_2" x1="33.3%" y1="0%" x2="100%" y2="100%"><stop offset="20%" stop-color="#4459f1" stop-opacity="1"></stop><stop offset="80%" stop-color="#2d3eca" stop-opacity="1"></stop></linearGradient></defs><defs><linearGradient id="grad2_0" x1="0%" y1="0%" x2="66.7%" y2="100%"><stop offset="20%" stop-color="#0f23a5" stop-opacity="1"></stop><stop offset="80%" stop-color="#0f23a5" stop-opacity="1"></stop></linearGradient></defs><defs><linearGradient id="grad2_1" x1="0%" y1="0%" x2="66.7%" y2="100%"><stop offset="20%" stop-color="#2d3eca" stop-opacity="1"></stop><stop offset="80%" stop-color="#0f23a5" stop-opacity="1"></stop></linearGradient></defs><defs><linearGradient id="grad2_2" x1="0%" y1="0%" x2="66.7%" y2="100%"><stop offset="20%" stop-color="#2d3eca" stop-opacity="1"></stop><stop offset="80%" stop-color="#4459f1" stop-opacity="1"></stop></linearGradient></defs><g transform="translate(900, 0)"><path d="M0 540.8C-79.1 541.1 -158.2 541.4 -207 499.7C-255.7 457.9 -274.1 374 -322.4 322.4C-370.8 270.9 -449.2 251.6 -490.6 203.2C-532 154.8 -536.4 77.4 -540.8 0L0 0Z" fill="#394bde"></path><path d="M0 360.6C-52.7 360.8 -105.5 361 -138 333.1C-170.5 305.3 -182.7 249.3 -215 215C-247.2 180.6 -299.5 167.7 -327.1 135.5C-354.7 103.2 -357.6 51.6 -360.6 0L0 0Z" fill="#2030b8"></path><path d="M0 180.3C-26.4 180.4 -52.7 180.5 -69 166.6C-85.2 152.6 -91.4 124.7 -107.5 107.5C-123.6 90.3 -149.7 83.9 -163.5 67.7C-177.3 51.6 -178.8 25.8 -180.3 0L0 0Z" fill="#0f23a5"></path></g><g transform="translate(0, 600)"><path d="M0 -540.8C54.2 -482.1 108.3 -423.4 162.3 -391.7C216.2 -360 269.8 -355.3 331.6 -331.6C393.5 -308 463.4 -265.4 499.7 -207C535.9 -148.5 538.4 -74.3 540.8 0L0 0Z" fill="#394bde"></path><path d="M0 -360.6C36.1 -321.4 72.2 -282.3 108.2 -261.1C144.1 -240 179.9 -236.9 221.1 -221.1C262.3 -205.3 309 -176.9 333.1 -138C357.3 -99 358.9 -49.5 360.6 0L0 0Z" fill="#2030b8"></path><path d="M0 -180.3C18.1 -160.7 36.1 -141.1 54.1 -130.6C72.1 -120 89.9 -118.4 110.5 -110.5C131.2 -102.7 154.5 -88.5 166.6 -69C178.6 -49.5 179.5 -24.8 180.3 0L0 0Z" fill="#0f23a5"></path></g></svg>